# xmcd
#
# Track frame offsets: 
#        150
#        13831
#        26947
#        38960
#        51653
#        65169
#        81081
#        96076
#        111377
#        126360
#        139970
#        156609
#        170031
#        181433
#        197533
#        211766
#        222639
#        233571
#        244938
#        257831
#
# Disc length: 3583 seconds
#
# Revision: 0
# Processed by: cddbd v1.5.2PL0 Copyright (c) Steve Scherf et al.
# Submitted via: ExactAudioCopy v1.3
#
DISCID=3f0dfd14
DTITLE=Mickey Gilley - Ten Years Of Hits
DYEAR=1984
DGENRE=Country
TTITLE0=Room Full of Roses
TTITLE1=I Overlooked A Orchid
TTITLE2=Window Up Above
TTITLE3=City Lights
TTITLE4=Don't The Girls All Get Prettier At Closing Time
TTITLE5=Lonely Nights
TTITLE6=Tears Of The Lonely
TTITLE7=Put Your Dreams Away
TTITLE8=Talk To Me
TTITLE9=You've Really Got A Hold On Me
TTITLE10=Stand By Me (Single Version)
TTITLE11=True Love Ways
TTITLE12=That's All That Matters
TTITLE13=A Headaache Tomorrow (Or A Heartache Tonight)
TTITLE14=You Don't Know Me
TTITLE15=Bring It On Home To Me
TTITLE16=Lawdy Miss Clawdy
TTITLE17=She's Pulling Me Back Again
TTITLE18=Chains Of Love
TTITLE19=The Power of Positive Drinkin'
EXTD=
EXTT0=
EXTT1=
EXTT2=
EXTT3=
EXTT4=
EXTT5=
EXTT6=
EXTT7=
EXTT8=
EXTT9=
EXTT10=
EXTT11=
EXTT12=
EXTT13=
EXTT14=
EXTT15=
EXTT16=
EXTT17=
EXTT18=
EXTT19=
PLAYORDER=
